<svg version="1.1" id="Camada_1" xmlns="http://www.w3.org/2000/svg" xmlns:xlink="http://www.w3.org/1999/xlink" x="0px" y="0px" viewBox="97.30000305175781 259.6999816894531 660.199951171875 77.10003662109375" style="enable-background:new 0 0 841.9 595.3;" xml:space="preserve" preserveAspectRatio="none">
<style type="text/css">
	.st0{fill-rule:evenodd;clip-rule:evenodd;fill:#555553;}
	.st1{fill:#555553;}
	.st2{fill-rule:evenodd;clip-rule:evenodd;fill:#DBB843;}
</style>
<g>
	<path class="st0" d="M475.7,259.8c-18.6,0.3-24.2,1.6-28.8,5c-5.6,4.4-7.4,12.1-7.4,32.9c0,21.9,1.7,29.4,7.4,33.9
		c4.6,3.5,10.3,4.7,28.8,5.1c-15.3-6.1-26.1-21-26.1-38.5C449.5,280.8,460.3,265.9,475.7,259.8L475.7,259.8z M506,336.7
		c18.5-0.4,24.2-1.6,28.8-5.1c5.7-4.5,7.4-11.9,7.4-33.4c0-21.4-1.7-29-7.4-33.4c-4.7-3.5-10.3-4.7-28.8-5
		c15.3,6.1,26.1,21,26.1,38.4C532.2,315.7,521.3,330.7,506,336.7L506,336.7z M698.8,275.1c-24.9,0-30.6,0.7-35.2,4.1
		c-4.5,3.5-5.9,9.7-5.9,26.3c0,17.5,1.3,23.5,5.9,27.1c4.6,3.4,10.4,4.1,35.4,4.1c24.6,0,30.4-0.7,35-4.1c4.6-3.6,5.9-9.5,5.9-26.8
		c0-17.2-1.4-23.2-5.9-26.7C729.5,275.8,723.7,275.1,698.8,275.1L698.8,275.1z M698.8,290.7c16.8,0,19,0.2,20.9,2.8
		c1.5,2.1,2.1,5.6,2.1,14.1c0,7.2-0.7,9.9-2.7,11.5c-2.3,1.8-5.6,2.1-20,2.1c-14.8,0-18.1-0.3-20.4-2.1c-2.1-1.7-2.7-4.1-2.7-11.6
		c0-7.9,0.4-11.2,1.6-13.4C679.4,290.9,681.2,290.7,698.8,290.7L698.8,290.7z M575.7,336.8h18.2v-15.2h25.8c7.5,0,8.9,0.2,10.1,1.6
		c1.4,1.5,1.8,3.7,1.8,10.4v3.1h17.9v-5.6c0.4-13.8-1.2-16.5-10.5-17.6c3.8-0.5,5.5-1.2,7.3-2.7c3-2.5,3.8-5.9,3.8-14.6
		c0-10.3-1.3-14.4-5.9-17.2c-3.9-2.3-3.9-2.3-24.5-2.3h-44.1V336.8z M596,305.5v-14.7h25.7c8.4,0.1,8.6,0.1,9.9,0.7
		c1.7,0.8,2.4,2.6,2.4,6.4c0,3.9-0.5,5.7-2.1,6.7c-1.3,0.7-1.3,0.7-10.2,0.9H596z M549.4,276.1V336h19.1v-59.9H549.4z M357.2,259.7
		v77.1h75.1v-19.1h-51.1v-58H357.2z M269.9,276.9v59.9H289v-21.7h41.2v21.7h19.1v-59.9h-19.1v21.4H289v-21.4H269.9z M196.1,276.9
		v59.9h66.6v-14.4H214v-9.5h45.9v-13.2H214V291h48.3v-14.1H196.1z M97.3,310.9v3.6c0,10.6,1.8,15.1,7.4,18.3c5.4,3.1,14.7,4,37,4
		c23.1,0,32.3-0.7,37-2.6c7.3-2.9,10.2-9.3,10.2-22c0-10.8-2-15.8-7.5-19.1c-4.7-2.8-9.8-3.5-33.9-4.1c-16.4-0.5-22.2-0.8-24.2-1.4
		c-2.1-0.7-3.1-2.1-3.1-4.8c0-5.5,1.6-5.9,20.7-5.9c17.2,0,19.8,0.2,21.6,1.7c1.2,1.2,1.6,2.1,1.7,5.9h22c0.1-1.4,0.1-3,0.1-3.5
		c0-9.2-2-14.1-6.8-17.1c-5.4-3.1-13.2-4.2-34.1-4.2c-27.1,0-33.6,0.7-39.4,3.8c-5.3,2.9-7.9,9.7-7.9,20.7c0,7.5,1.4,12.4,4.2,15.7
		c3.4,3.8,8.7,5.4,19.5,5.7c2.4,0,10,0.3,18.2,0.8c8,0.3,15.4,0.7,17.9,0.7c7.3,0.1,9.1,1.2,9.1,5.7c0,3.2-0.8,4.9-2.5,5.7
		c-2.1,0.9-4.7,1-22,1c-16.1,0-18.5-0.2-20.7-1.6c-1.8-1.1-2.3-2.6-2.3-7.1H97.3z"></path>
	<g>
		<path class="st1" d="M740,268.5c0-0.8,0.1-1.6,0.3-2.3c0.2-0.7,0.5-1.4,0.9-2.1s0.8-1.2,1.3-1.8c0.5-0.5,1.1-1,1.8-1.4
			c0.6-0.4,1.3-0.7,2.1-0.9c0.7-0.2,1.5-0.3,2.3-0.3s1.6,0.1,2.3,0.3c0.7,0.2,1.4,0.5,2.1,0.9c0.6,0.4,1.2,0.8,1.8,1.4
			c0.5,0.5,1,1.1,1.4,1.8s0.7,1.3,0.9,2.1c0.2,0.7,0.3,1.5,0.3,2.3c0,0.8-0.1,1.6-0.3,2.3c-0.2,0.7-0.5,1.4-0.9,2.1
			s-0.8,1.2-1.4,1.8c-0.5,0.5-1.1,1-1.8,1.4s-1.3,0.7-2.1,0.9c-0.7,0.2-1.5,0.3-2.3,0.3c-0.8,0-1.6-0.1-2.3-0.3s-1.4-0.5-2.1-0.9
			c-0.6-0.4-1.2-0.8-1.8-1.4c-0.5-0.5-1-1.1-1.3-1.8s-0.7-1.3-0.9-2.1S740,269.3,740,268.5z M740.7,268.5c0,1.1,0.2,2.2,0.6,3.1
			c0.4,1,1,1.8,1.7,2.5c0.7,0.7,1.6,1.3,2.5,1.7c1,0.4,2,0.6,3.1,0.6c1.1,0,2.1-0.2,3.1-0.6c1-0.4,1.8-1,2.5-1.7
			c0.7-0.7,1.3-1.6,1.7-2.5c0.4-1,0.6-2,0.6-3.1c0-1.1-0.2-2.2-0.6-3.1s-1-1.8-1.7-2.5c-0.7-0.7-1.6-1.3-2.5-1.7s-2-0.6-3.1-0.6
			c-1.1,0-2.1,0.2-3.1,0.6c-1,0.4-1.8,1-2.5,1.7s-1.3,1.6-1.7,2.5S740.7,267.4,740.7,268.5z M746.5,269.1v4.7h-1v-10.6h3
			c1.2,0,2.2,0.2,2.8,0.7s0.9,1.2,0.9,2.1c0,0.8-0.3,1.5-0.8,2c-0.5,0.5-1.2,0.8-2.2,1c0.1,0.1,0.2,0.1,0.3,0.2
			c0.1,0.1,0.2,0.2,0.2,0.3l3.4,4.4h-1c-0.1,0-0.1,0-0.2,0c-0.1,0-0.1-0.1-0.2-0.2l-3.2-4.2c-0.1-0.1-0.1-0.2-0.2-0.2
			c-0.1-0.1-0.3-0.1-0.5-0.1H746.5z M746.5,268.3h1.8c1,0,1.7-0.2,2.2-0.6c0.5-0.4,0.7-0.9,0.7-1.7c0-0.7-0.2-1.3-0.6-1.6
			s-1.1-0.5-2.1-0.5h-1.9V268.3z"></path>
	</g>
	<g>
		<path class="st2" d="M463.4,287.9h13.7l10.6,10.4l-11.1,10.4h-13.2c-1.7,0-3.1-1.4-3.1-3.1v-14.7
			C460.3,289.2,461.7,287.9,463.4,287.9L463.4,287.9z M465.2,298.3l1.8,1.9l1.8,1.9v-3.8v-3.7l-1.8,1.9L465.2,298.3z"></path>
		<path class="st2" d="M501.3,270.8v13.7l-10.4,10.6l-10.4-11.1v-13.2c0-1.7,1.4-3.1,3.1-3.1h14.7
			C499.9,267.7,501.3,269.1,501.3,270.8L501.3,270.8z M490.8,272.6l-1.9,1.8l-1.9,1.8h3.7h3.7l-1.9-1.8L490.8,272.6z"></path>
		<path class="st2" d="M518.3,308.7h-13.7L494,298.3l11.1-10.4h13.2c1.7,0,3.1,1.4,3.1,3.1v14.7C521.4,307.3,520,308.7,518.3,308.7
			L518.3,308.7z M516.5,298.3l-1.8-1.9l-1.8-1.9v3.7v3.8l1.8-1.9L516.5,298.3z"></path>
		<path class="st2" d="M480.4,325.7V312l10.4-10.6l10.4,11v13.2c0,1.7-1.4,3.1-3.1,3.1h-14.7C481.8,328.8,480.4,327.4,480.4,325.7
			L480.4,325.7z M490.8,323.9l1.9-1.8l1.9-1.8h-3.7h-3.7l1.9,1.8L490.8,323.9z"></path>
	</g>
</g>
</svg>