<svg xmlns="http://www.w3.org/2000/svg" viewBox="97.3 259.7 660.2 77.1" preserveAspectRatio="none"><path d="M475.7 259.8c-18.6.3-24.2 1.6-28.8 5-5.6 4.4-7.4 12.1-7.4 32.9 0 21.9 1.7 29.4 7.4 33.9 4.6 3.5 10.3 4.7 28.8 5.1-15.3-6.1-26.1-21-26.1-38.5-.1-17.4 10.7-32.3 26.1-38.4zm30.3 76.9c18.5-.4 24.2-1.6 28.8-5.1 5.7-4.5 7.4-11.9 7.4-33.4 0-21.4-1.7-29-7.4-33.4-4.7-3.5-10.3-4.7-28.8-5 15.3 6.1 26.1 21 26.1 38.4.1 17.5-10.8 32.5-26.1 38.5zm192.8-61.6c-24.9 0-30.6.7-35.2 4.1-4.5 3.5-5.9 9.7-5.9 26.3 0 17.5 1.3 23.5 5.9 27.1 4.6 3.4 10.4 4.1 35.4 4.1 24.6 0 30.4-.7 35-4.1 4.6-3.6 5.9-9.5 5.9-26.8 0-17.2-1.4-23.2-5.9-26.7-4.5-3.3-10.3-4-35.2-4zm0 15.6c16.8 0 19 .2 20.9 2.8 1.5 2.1 2.1 5.6 2.1 14.1 0 7.2-.7 9.9-2.7 11.5-2.3 1.8-5.6 2.1-20 2.1-14.8 0-18.1-.3-20.4-2.1-2.1-1.7-2.7-4.1-2.7-11.6 0-7.9.4-11.2 1.6-13.4 1.8-3.2 3.6-3.4 21.2-3.4zm-123.1 46.1h18.2v-15.2h25.8c7.5 0 8.9.2 10.1 1.6 1.4 1.5 1.8 3.7 1.8 10.4v3.1h17.9v-5.6c.4-13.8-1.2-16.5-10.5-17.6 3.8-.5 5.5-1.2 7.3-2.7 3-2.5 3.8-5.9 3.8-14.6 0-10.3-1.3-14.4-5.9-17.2-3.9-2.3-3.9-2.3-24.5-2.3h-44.1v60.1zm20.3-31.3v-14.7h25.7c8.4.1 8.6.1 9.9.7 1.7.8 2.4 2.6 2.4 6.4 0 3.9-.5 5.7-2.1 6.7-1.3.7-1.3.7-10.2.9H596zm-46.6-29.4V336h19.1v-59.9h-19.1zm-192.2-16.4v77.1h75.1v-19.1h-51.1v-58h-24zm-87.3 17.2v59.9H289v-21.7h41.2v21.7h19.1v-59.9h-19.1v21.4H289v-21.4h-19.1zm-73.8 0v59.9h66.6v-14.4H214v-9.5h45.9v-13.2H214V291h48.3v-14.1h-66.2zm-98.8 34v3.6c0 10.6 1.8 15.1 7.4 18.3 5.4 3.1 14.7 4 37 4 23.1 0 32.3-.7 37-2.6 7.3-2.9 10.2-9.3 10.2-22 0-10.8-2-15.8-7.5-19.1-4.7-2.8-9.8-3.5-33.9-4.1-16.4-.5-22.2-.8-24.2-1.4-2.1-.7-3.1-2.1-3.1-4.8 0-5.5 1.6-5.9 20.7-5.9 17.2 0 19.8.2 21.6 1.7 1.2 1.2 1.6 2.1 1.7 5.9h22c.1-1.4.1-3 .1-3.5 0-9.2-2-14.1-6.8-17.1-5.4-3.1-13.2-4.2-34.1-4.2-27.1 0-33.6.7-39.4 3.8-5.3 2.9-7.9 9.7-7.9 20.7 0 7.5 1.4 12.4 4.2 15.7 3.4 3.8 8.7 5.4 19.5 5.7 2.4 0 10 .3 18.2.8 8 .3 15.4.7 17.9.7 7.3.1 9.1 1.2 9.1 5.7 0 3.2-.8 4.9-2.5 5.7-2.1.9-4.7 1-22 1-16.1 0-18.5-.2-20.7-1.6-1.8-1.1-2.3-2.6-2.3-7.1H97.3z" fill-rule="evenodd" clip-rule="evenodd" fill="#555553"/><path d="M740 268.5c0-.8.1-1.6.3-2.3.2-.7.5-1.4.9-2.1s.8-1.2 1.3-1.8c.5-.5 1.1-1 1.8-1.4.6-.4 1.3-.7 2.1-.9.7-.2 1.5-.3 2.3-.3s1.6.1 2.3.3c.7.2 1.4.5 2.1.9.6.4 1.2.8 1.8 1.4.5.5 1 1.1 1.4 1.8s.7 1.3.9 2.1c.2.7.3 1.5.3 2.3 0 .8-.1 1.6-.3 2.3-.2.7-.5 1.4-.9 2.1s-.8 1.2-1.4 1.8c-.5.5-1.1 1-1.8 1.4s-1.3.7-2.1.9c-.7.2-1.5.3-2.3.3-.8 0-1.6-.1-2.3-.3s-1.4-.5-2.1-.9c-.6-.4-1.2-.8-1.8-1.4-.5-.5-1-1.1-1.3-1.8s-.7-1.3-.9-2.1-.3-1.5-.3-2.3zm.7 0c0 1.1.2 2.2.6 3.1.4 1 1 1.8 1.7 2.5s1.6 1.3 2.5 1.7c1 .4 2 .6 3.1.6s2.1-.2 3.1-.6c1-.4 1.8-1 2.5-1.7s1.3-1.6 1.7-2.5c.4-1 .6-2 .6-3.1s-.2-2.2-.6-3.1-1-1.8-1.7-2.5-1.6-1.3-2.5-1.7-2-.6-3.1-.6-2.1.2-3.1.6c-1 .4-1.8 1-2.5 1.7s-1.3 1.6-1.7 2.5-.6 2-.6 3.1zm5.8.6v4.7h-1v-10.6h3c1.2 0 2.2.2 2.8.7s.9 1.2.9 2.1c0 .8-.3 1.5-.8 2s-1.2.8-2.2 1c.1.1.2.1.3.2.1.1.2.2.2.3l3.4 4.4h-1.2c-.1 0-.1-.1-.2-.2l-3.2-4.2c-.1-.1-.1-.2-.2-.2-.1-.1-.3-.1-.5-.1h-1.3zm0-.8h1.8c1 0 1.7-.2 2.2-.6.5-.4.7-.9.7-1.7 0-.7-.2-1.3-.6-1.6s-1.1-.5-2.1-.5h-1.9v4.4z" fill="#555553"/><path d="M463.4 287.9h13.7l10.6 10.4-11.1 10.4h-13.2c-1.7 0-3.1-1.4-3.1-3.1v-14.7c0-1.7 1.4-3 3.1-3zm1.8 10.4l1.8 1.9 1.8 1.9v-7.5l-1.8 1.9-1.8 1.8zm36.1-27.5v13.7l-10.4 10.6-10.4-11.1v-13.2c0-1.7 1.4-3.1 3.1-3.1h14.7c1.6 0 3 1.4 3 3.1zm-10.5 1.8l-1.9 1.8-1.9 1.8h7.4l-1.9-1.8-1.7-1.8zm27.5 36.1h-13.7L494 298.3l11.1-10.4h13.2c1.7 0 3.1 1.4 3.1 3.1v14.7c0 1.6-1.4 3-3.1 3zm-1.8-10.4l-1.8-1.9-1.8-1.9v7.5l1.8-1.9 1.8-1.8zm-36.1 27.4V312l10.4-10.6 10.4 11v13.2c0 1.7-1.4 3.1-3.1 3.1h-14.7c-1.6.1-3-1.3-3-3zm10.4-1.8l1.9-1.8 1.9-1.8h-7.4l1.9 1.8 1.7 1.8z" fill-rule="evenodd" clip-rule="evenodd" fill="#dbb843"/></svg>